<?xml version="1.0" standalone="no"?>
<!DOCTYPE svg PUBLIC "-//W3C//DTD SVG 20010904//EN"
 "http://www.w3.org/TR/2001/REC-SVG-20010904/DTD/svg10.dtd">
<svg version="1.0" xmlns="http://www.w3.org/2000/svg"
 width="512.000000pt" height="512.000000pt" viewBox="0 0 512.000000 512.000000"
 preserveAspectRatio="xMidYMid meet">
<metadata>
Created by potrace 1.14, written by Peter Selinger 2001-2017
</metadata>
<g transform="translate(0.000000,512.000000) scale(0.100000,-0.100000)"
fill="#000000" stroke="none">
<path d="M2830 5094 c-84 -45 -158 -53 -540 -57 -283 -3 -374 -8 -450 -22
-261 -48 -456 -147 -606 -308 -77 -82 -124 -153 -124 -189 0 -41 40 -78 85
-78 40 0 53 11 124 104 85 112 242 218 391 264 156 47 246 56 565 54 298 -2
405 5 519 34 38 10 62 12 69 5 5 -5 18 -45 28 -88 21 -89 49 -123 102 -123 33
0 149 17 178 26 24 7 87 -127 130 -276 19 -65 22 -106 25 -300 l4 -225 -23 65
c-46 128 -128 223 -245 281 -64 33 -71 34 -182 34 -109 0 -119 -2 -184 -33
-131 -61 -187 -74 -352 -80 -171 -5 -279 11 -374 55 -143 66 -257 81 -368 48
-118 -35 -243 -156 -293 -282 -21 -53 -24 -79 -29 -286 l-5 -229 -38 -13 c-37
-13 -39 -12 -49 13 -24 62 -58 218 -69 316 -11 99 -14 108 -41 131 -39 33 -73
32 -109 -4 -33 -34 -34 -39 -15 -182 16 -116 34 -194 72 -311 l25 -77 -25 -34
c-159 -208 -88 -515 146 -632 39 -19 79 -35 88 -35 16 0 18 -15 22 -147 7
-228 28 -269 229 -449 l132 -118 -6 -120 c-4 -67 -13 -150 -21 -186 -43 -198
-34 -191 -346 -294 -373 -125 -627 -234 -791 -342 -82 -54 -237 -214 -302
-312 -116 -174 -196 -432 -173 -557 8 -43 59 -103 103 -122 52 -21 4519 -19
4612 3 273 63 448 343 386 618 -13 61 -58 160 -211 468 -184 370 -198 394
-257 453 -73 73 -160 118 -267 141 -63 13 -151 15 -565 12 -440 -4 -496 -6
-545 -22 -78 -26 -121 -49 -185 -102 -31 -25 -58 -44 -60 -42 -13 13 -37 176
-41 283 l-5 130 125 108 c198 171 227 226 234 455 4 123 6 142 21 142 37 0
145 62 195 112 146 146 165 370 47 542 l-32 47 30 117 c96 372 108 785 31
1035 -42 136 -138 309 -218 394 -43 46 -70 50 -148 19 -79 -32 -186 -58 -195
-48 -4 4 -12 25 -19 47 -25 78 -68 163 -91 179 -32 22 -65 19 -119 -10z m-955
-1006 c148 -65 195 -73 430 -73 235 0 284 8 430 74 107 48 184 50 264 6 64
-35 114 -91 137 -154 15 -40 18 -94 22 -391 3 -334 4 -346 24 -367 27 -29 86
-31 119 -4 18 15 25 32 29 76 l5 57 49 -34 c147 -99 148 -314 2 -415 -29 -20
-65 -34 -94 -38 -77 -10 -91 -14 -111 -36 -16 -18 -19 -40 -23 -203 -6 -258
10 -232 -319 -520 -151 -132 -282 -238 -308 -250 -42 -19 -64 -21 -231 -21
-164 0 -190 2 -227 20 -66 31 -557 466 -590 523 -27 46 -28 52 -33 238 -6 221
-9 229 -89 239 -151 20 -238 104 -249 240 -5 64 17 135 56 179 20 22 92 76
102 76 4 0 10 -25 12 -57 4 -43 10 -61 28 -75 29 -23 82 -23 111 1 l24 19 5
359 5 358 27 50 c36 69 100 127 165 151 59 22 137 12 228 -28z m121 -2427 c76
-36 135 -43 342 -39 l198 3 75 37 c40 20 99 59 129 86 l56 50 12 -97 c14 -122
46 -244 78 -298 l24 -42 -37 -75 -37 -76 -91 -30 c-245 -82 -552 -91 -814 -24
-93 23 -234 86 -279 124 l-23 19 42 42 c22 22 49 60 59 83 24 54 57 186 65
261 3 33 9 72 11 87 l5 27 70 -59 c39 -32 90 -68 115 -79z m2317 -131 c37 -6
90 -21 118 -35 99 -51 116 -77 316 -482 199 -406 212 -443 194 -544 -27 -153
-140 -265 -295 -292 -80 -13 -165 7 -243 58 -68 45 -98 91 -171 263 -72 167
-94 199 -164 238 -53 29 -53 29 -228 29 -154 0 -180 -2 -215 -20 -75 -37 -107
-81 -175 -241 -35 -82 -76 -168 -93 -191 -39 -55 -117 -107 -191 -129 -241
-68 -479 161 -426 411 8 40 73 180 201 436 162 324 194 382 230 413 55 47 118
77 182 86 78 11 881 11 960 0z m-2801 -360 c118 -95 286 -167 484 -207 130
-26 511 -24 637 4 48 10 87 18 87 17 0 -1 -18 -39 -39 -84 -22 -45 -41 -86
-43 -92 -2 -5 -53 -17 -113 -25 -133 -18 -407 -12 -535 11 -191 34 -377 106
-509 195 -71 49 -191 158 -191 175 0 10 113 52 147 55 7 1 41 -22 75 -49z
m-373 -95 c41 -60 180 -185 274 -246 155 -100 345 -170 577 -211 49 -8 161
-13 323 -13 l247 0 0 -70 c0 -121 32 -220 102 -322 l29 -43 -745 0 -744 0 -4
105 c-3 116 -14 139 -74 151 -24 4 -37 0 -62 -21 -31 -26 -31 -28 -34 -128
l-3 -102 -429 -3 -428 -2 6 47 c30 206 106 357 267 527 88 93 166 147 319 220
101 49 328 144 345 145 6 1 21 -15 34 -34z m2864 -502 c8 -10 41 -79 73 -153
31 -74 75 -161 96 -193 l38 -57 -370 0 c-297 0 -369 3 -363 13 4 7 21 31 36
54 16 23 55 103 88 179 32 75 66 145 75 156 15 16 34 18 164 18 127 0 149 -2
163 -17z"/>
<path d="M1651 3393 c-12 -10 -24 -34 -27 -54 -5 -29 -1 -41 19 -65 l25 -29
188 -3 c103 -2 198 -1 211 3 63 15 86 100 40 143 -22 21 -32 22 -229 22 -181
0 -208 -2 -227 -17z"/>
<path d="M2503 3388 c-29 -32 -34 -53 -21 -88 18 -53 46 -60 250 -60 199 0
223 6 246 54 17 33 9 69 -20 96 -20 19 -35 20 -228 20 -201 0 -207 -1 -227
-22z"/>
<path d="M1844 3150 c-39 -16 -54 -49 -54 -123 0 -62 3 -71 29 -98 33 -32 58
-36 100 -14 37 18 41 31 41 118 -1 75 -9 95 -47 115 -25 14 -40 14 -69 2z"/>
<path d="M2689 3145 c-47 -25 -64 -120 -35 -190 25 -58 84 -73 132 -31 24 20
28 33 32 88 5 75 -14 123 -54 138 -33 13 -44 12 -75 -5z"/>
<path d="M2164 2706 c-21 -18 -28 -32 -28 -61 0 -29 7 -43 28 -61 25 -22 36
-24 142 -24 109 0 116 1 139 25 38 37 37 88 -1 123 -23 20 -35 22 -139 22
-105 0 -116 -2 -141 -24z"/>
<path d="M1986 2439 c-43 -51 -30 -92 46 -144 134 -90 348 -102 495 -26 72 36
113 78 113 116 0 79 -78 110 -151 61 -102 -70 -240 -75 -353 -13 -83 46 -116
47 -150 6z"/>
<path d="M3390 1363 c-43 -16 -60 -46 -60 -103 l0 -57 -61 -6 c-76 -7 -109
-33 -109 -87 0 -55 35 -83 110 -88 l60 -4 0 -58 c0 -53 3 -61 32 -85 25 -21
38 -25 62 -21 50 10 76 48 76 110 l0 54 62 4 c51 4 65 9 85 32 59 69 2 146
-107 146 l-40 0 0 51 c0 63 -13 87 -55 105 -19 8 -36 14 -37 13 -2 0 -10 -3
-18 -6z"/>
<path d="M4220 1361 c-188 -40 -271 -255 -155 -406 64 -84 170 -119 271 -90
47 13 69 27 109 68 56 58 75 105 75 188 -1 150 -152 271 -300 240z"/>
<path d="M1022 4290 c-27 -11 -55 -71 -45 -97 3 -10 15 -28 26 -40 44 -49 137
-14 137 52 0 47 -8 64 -41 80 -32 17 -44 18 -77 5z"/>
</g>
</svg>
